<svg xmlns="http://www.w3.org/2000/svg" viewBox="0 0 800 400">
  <defs>
    <linearGradient id="bg" x1="0%" y1="0%" x2="100%" y2="100%">
      <stop offset="0%" style="stop-color:#1a1a2e"/>
      <stop offset="100%" style="stop-color:#16213e"/>
    </linearGradient>
    <linearGradient id="rust" x1="0%" y1="0%" x2="100%" y2="0%">
      <stop offset="0%" style="stop-color:#f74c00"/>
      <stop offset="100%" style="stop-color:#ff8c42"/>
    </linearGradient>
    <linearGradient id="python" x1="0%" y1="0%" x2="100%" y2="0%">
      <stop offset="0%" style="stop-color:#3776ab"/>
      <stop offset="100%" style="stop-color:#ffd43b"/>
    </linearGradient>
    <linearGradient id="arrow" x1="0%" y1="0%" x2="100%" y2="0%">
      <stop offset="0%" style="stop-color:#4ecca3"/>
      <stop offset="100%" style="stop-color:#36d1dc"/>
    </linearGradient>
  </defs>
  
  <!-- Background -->
  <rect width="800" height="400" fill="url(#bg)"/>
  
  <!-- Grid pattern -->
  <g stroke="#ffffff08" stroke-width="1">
    <line x1="0" y1="50" x2="800" y2="50"/>
    <line x1="0" y1="100" x2="800" y2="100"/>
    <line x1="0" y1="150" x2="800" y2="150"/>
    <line x1="0" y1="200" x2="800" y2="200"/>
    <line x1="0" y1="250" x2="800" y2="250"/>
    <line x1="0" y1="300" x2="800" y2="300"/>
    <line x1="0" y1="350" x2="800" y2="350"/>
    <line x1="100" y1="0" x2="100" y2="400"/>
    <line x1="200" y1="0" x2="200" y2="400"/>
    <line x1="300" y1="0" x2="300" y2="400"/>
    <line x1="400" y1="0" x2="400" y2="400"/>
    <line x1="500" y1="0" x2="500" y2="400"/>
    <line x1="600" y1="0" x2="600" y2="400"/>
    <line x1="700" y1="0" x2="700" y2="400"/>
  </g>
  
  <!-- Title -->
  <text x="400" y="60" text-anchor="middle" font-family="system-ui, -apple-system, sans-serif" font-size="32" font-weight="bold" fill="#ffffff">
    Batuta Ground Truth MLOps Corpus
  </text>
  <text x="400" y="90" text-anchor="middle" font-family="system-ui, sans-serif" font-size="16" fill="#4ecca3">
    Production-Ready Rust MLOps Patterns
  </text>
  
  <!-- Python box (left) -->
  <g transform="translate(100, 140)">
    <rect x="0" y="0" width="180" height="180" rx="12" fill="#1e3a5f" stroke="url(#python)" stroke-width="2"/>
    <text x="90" y="30" text-anchor="middle" font-family="monospace" font-size="14" font-weight="bold" fill="#ffd43b">Python (hf_gtc)</text>
    <text x="15" y="55" font-family="monospace" font-size="11" fill="#8892b0">preprocessing</text>
    <text x="15" y="72" font-family="monospace" font-size="11" fill="#8892b0">models</text>
    <text x="15" y="89" font-family="monospace" font-size="11" fill="#8892b0">training</text>
    <text x="15" y="106" font-family="monospace" font-size="11" fill="#8892b0">inference</text>
    <text x="15" y="123" font-family="monospace" font-size="11" fill="#8892b0">evaluation</text>
    <text x="15" y="140" font-family="monospace" font-size="11" fill="#8892b0">deployment</text>
    <text x="15" y="157" font-family="monospace" font-size="11" fill="#4ecca3">hub, generation, rag</text>
    <text x="15" y="174" font-family="monospace" font-size="11" fill="#4ecca3">agents, safety, audio</text>
  </g>
  
  <!-- Arrow -->
  <g transform="translate(310, 200)">
    <path d="M 0 30 L 80 30 L 80 15 L 110 35 L 80 55 L 80 40 L 0 40 Z" fill="url(#arrow)" opacity="0.9"/>
    <text x="55" y="75" text-anchor="middle" font-family="system-ui, sans-serif" font-size="11" fill="#4ecca3">1:1 Parity</text>
  </g>
  
  <!-- Rust box (right) -->
  <g transform="translate(450, 140)">
    <rect x="0" y="0" width="250" height="180" rx="12" fill="#2d1810" stroke="url(#rust)" stroke-width="2"/>
    <text x="125" y="30" text-anchor="middle" font-family="monospace" font-size="14" font-weight="bold" fill="#f74c00">Rust (Sovereign AI Stack)</text>
    <text x="15" y="55" font-family="monospace" font-size="11" fill="#8892b0">preprocessing</text>
    <rect x="155" y="44" width="30" height="14" rx="3" fill="#4ecca3"/>
    <text x="170" y="54" text-anchor="middle" font-family="monospace" font-size="9" fill="#1a1a2e">done</text>
    <text x="15" y="72" font-family="monospace" font-size="11" fill="#8892b0">models, training, inference</text>
    <rect x="195" y="61" width="30" height="14" rx="3" fill="#4ecca3"/>
    <text x="210" y="71" text-anchor="middle" font-family="monospace" font-size="9" fill="#1a1a2e">done</text>
    <text x="15" y="89" font-family="monospace" font-size="11" fill="#8892b0">evaluation, deployment</text>
    <rect x="175" y="78" width="30" height="14" rx="3" fill="#4ecca3"/>
    <text x="190" y="88" text-anchor="middle" font-family="monospace" font-size="9" fill="#1a1a2e">done</text>
    <text x="15" y="106" font-family="monospace" font-size="11" fill="#4ecca3">hub, generation, rag</text>
    <rect x="155" y="95" width="30" height="14" rx="3" fill="#4ecca3"/>
    <text x="170" y="105" text-anchor="middle" font-family="monospace" font-size="9" fill="#1a1a2e">done</text>
    <text x="15" y="123" font-family="monospace" font-size="11" fill="#4ecca3">agents, safety</text>
    <rect x="115" y="112" width="30" height="14" rx="3" fill="#4ecca3"/>
    <text x="130" y="122" text-anchor="middle" font-family="monospace" font-size="9" fill="#1a1a2e">done</text>
    <text x="15" y="140" font-family="monospace" font-size="11" fill="#4ecca3">audio, multimodal</text>
    <rect x="135" y="129" width="30" height="14" rx="3" fill="#4ecca3"/>
    <text x="150" y="139" text-anchor="middle" font-family="monospace" font-size="9" fill="#1a1a2e">done</text>
    <line x1="15" y1="150" x2="235" y2="150" stroke="#333" stroke-width="1"/>
    <text x="15" y="165" font-family="monospace" font-size="10" fill="#666">Zero deps: trueno + aprender</text>
  </g>
  
  <!-- Stats bar -->
  <g transform="translate(50, 345)">
    <rect x="0" y="0" width="700" height="40" rx="8" fill="#0f0f23" stroke="#333" stroke-width="1"/>
    <text x="25" y="25" font-family="monospace" font-size="12" fill="#4ecca3">808 tests</text>
    <text x="130" y="25" font-family="monospace" font-size="12" fill="#f74c00">13/14 modules</text>
    <text x="275" y="25" font-family="monospace" font-size="12" fill="#ffd43b">97.78% cov</text>
    <text x="400" y="25" font-family="monospace" font-size="12" fill="#36d1dc">PMAT A+</text>
    <text x="510" y="25" font-family="monospace" font-size="12" fill="#8892b0">No SATD</text>
    <text x="610" y="25" font-family="monospace" font-size="12" fill="#8892b0">No Stubs</text>
  </g>
</svg>
